HIERARCHY
ROOT Pelvis
{
	OFFSET 0.000000 0.000000 0.000000
	CHANNELS 6 Xposition Yposition Zposition Zrotation Yrotation Xrotation 
	JOINT Left_hip
	{
		OFFSET 0.076090 -0.089427 -0.010735
		CHANNELS 3 Zrotation Yrotation Xrotation
		JOINT Left_knee
		{
			OFFSET 0.030200 -0.359518 -0.003501
			CHANNELS 3 Zrotation Yrotation Xrotation
			JOINT Left_ankle
			{
				OFFSET -0.011005 -0.371022 -0.045888
				CHANNELS 3 Zrotation Yrotation Xrotation
				JOINT Left_foot
				{
					OFFSET 0.023930 -0.052103 0.111084
					CHANNELS 3 Zrotation Yrotation Xrotation
					End Site
					{
						OFFSET 0.000000 0.000000 0.000000
					}
				}
			}
		}
	}
	JOINT Right_hip
	{
		OFFSET -0.073836 -0.088112 -0.007709
		CHANNELS 3 Zrotation Yrotation Xrotation
		JOINT Right_knee
		{
			OFFSET -0.035715 -0.367809 -0.006536
			CHANNELS 3 Zrotation Yrotation Xrotation
			JOINT Right_ankle
			{
				OFFSET 0.013718 -0.371958 -0.043815
				CHANNELS 3 Zrotation Yrotation Xrotation
				JOINT Right_foot
				{
					OFFSET -0.021936 -0.046387 0.114542
					CHANNELS 3 Zrotation Yrotation Xrotation
					End Site
					{
						OFFSET 0.000000 0.000000 0.000000
					}
				}
			}
		}
	}
	JOINT Spine1
	{
		OFFSET -0.001865 0.102064 -0.019455
		CHANNELS 3 Zrotation Yrotation Xrotation
		JOINT Spine2
		{
			OFFSET 0.003082 0.129260 -0.001938
			CHANNELS 3 Zrotation Yrotation Xrotation
			JOINT Spine3
			{
				OFFSET 0.001104 0.048093 0.026561
				CHANNELS 3 Zrotation Yrotation Xrotation
				JOINT Neck
				{
					OFFSET -0.002010 0.204222 -0.047183
					CHANNELS 3 Zrotation Yrotation Xrotation
					JOINT Head
					{
						OFFSET 0.005050 0.063649 0.048489
						CHANNELS 3 Zrotation Yrotation Xrotation
						End Site
						{
							OFFSET 0.000000 0.000000 0.000000
						}
					}
				}
				JOINT Left_collar
				{
					OFFSET 0.072979 0.114065 -0.031633
					CHANNELS 3 Zrotation Yrotation Xrotation
					JOINT Left_shoulder
					{
						OFFSET 0.083419 0.032092 -0.006530
						CHANNELS 3 Zrotation Yrotation Xrotation
						JOINT Left_elbow
						{
							OFFSET 0.239393 -0.012014 -0.025060
							CHANNELS 3 Zrotation Yrotation Xrotation
							JOINT Left_wrist
							{
								OFFSET 0.227297 0.008116 0.000384
								CHANNELS 3 Zrotation Yrotation Xrotation
								JOINT Left_palm
								{
									OFFSET 0.074607 -0.009248 -0.012277
									CHANNELS 3 Zrotation Yrotation Xrotation
									End Site
									{
										OFFSET 0.000000 0.000000 0.000000
									}
								}
							}
						}
					}
				}
				JOINT Right_collar
				{
					OFFSET -0.074980 0.111880 -0.037894
					CHANNELS 3 Zrotation Yrotation Xrotation
					JOINT Right_shoulder
					{
						OFFSET -0.087565 0.034353 -0.009323
						CHANNELS 3 Zrotation Yrotation Xrotation
						JOINT Right_elbow
						{
							OFFSET -0.236838 -0.013719 -0.019794
							CHANNELS 3 Zrotation Yrotation Xrotation
							JOINT Right_wrist
							{
								OFFSET -0.235053 0.006433 -0.003853
								CHANNELS 3 Zrotation Yrotation Xrotation
								JOINT Right_palm
								{
									OFFSET -0.075499 -0.006894 -0.009792
									CHANNELS 3 Zrotation Yrotation Xrotation
									End Site
									{
										OFFSET 0.000000 0.000000 0.000000
									}
								}
							}
						}
					}
				}
			}
		}
	}
}
MOTION
Frames: 7
Frame Time: 0.100000
-0.008505 0.786599 0.069246 174.344431 12.006836 -50.503507 -0.357675 25.109991 -81.225173 16.623543 38.101685 159.863463 10.692863 -20.929788 -10.352791 -23.017963 12.868822 -39.181531 5.895600 -28.062313 -84.721175 -18.789954 -32.360757 150.026125 30.118108 10.232116 35.669145 -19.138306 1.425514 -31.332436 1.388960 -1.415927 60.315364 0.249794 2.812049 -5.007258 -0.139944 -2.057554 3.652051 -6.456194 -5.246716 5.435287 -0.264422 1.829813 18.614919 -9.523446 3.522601 -0.493251 -49.475005 -11.891728 -9.132999 99.714232 -66.659212 -69.779193 24.434540 -11.231318 4.025733 -17.389007 -7.739490 -13.223276 4.356507 -0.273588 1.835469 33.235638 4.634846 -10.431598 -104.061382 73.309910 -90.380141 -18.654072 11.202794 -4.309346 26.055055 10.640515 2.935039 
-0.004592 0.786348 0.071312 175.262566 12.833612 -49.973684 -0.537662 26.831147 -79.731335 16.695152 38.328931 160.134255 9.719647 -22.000227 -9.846690 -22.662905 13.056438 -40.280191 5.473035 -28.426281 -84.714873 -18.904721 -32.162820 150.123566 29.683304 10.839379 35.885200 -18.289372 0.597603 -31.587523 1.929292 -2.838060 60.591355 0.018234 3.119914 -5.113654 -0.258723 -2.098217 3.681099 -7.224531 -5.520741 4.637094 -1.157506 3.025116 19.097795 -10.718415 4.462910 -0.176570 -52.785291 -11.492212 -7.737470 108.183327 -67.586598 -76.531051 26.006036 -11.595329 3.283894 -17.663626 -7.626807 -12.925063 4.826361 -0.197391 1.900415 34.478952 5.955921 -9.735238 -110.199245 73.483737 -95.885514 -19.606753 11.913562 -2.809311 25.848612 10.602294 3.066093 
-0.002535 0.786334 0.072679 175.685234 13.553072 -49.496658 -0.683945 28.292878 -78.248548 16.712468 38.442877 160.273213 9.306875 -23.121316 -9.557547 -22.773060 13.331853 -41.340781 5.096832 -28.649143 -85.108156 -19.054390 -32.020739 150.424034 29.254018 11.812991 35.902102 -17.406686 -0.112275 -31.839419 2.434351 -3.998177 60.614378 0.124656 3.409061 -5.047342 -0.238060 -2.109017 3.511038 -7.378942 -5.304386 3.980251 -1.983635 3.772665 20.073740 -11.852010 4.685174 0.171618 -56.100699 -11.705186 -6.240218 114.078081 -69.144986 -79.971096 25.213633 -12.316674 4.421211 -17.753326 -7.529107 -12.906104 5.814188 0.257675 2.293331 36.484370 7.440167 -8.678693 -114.931946 74.530941 -98.853181 -18.867639 12.612307 -0.434498 25.590914 10.611201 3.177074 
-0.002507 0.786531 0.073396 175.909177 14.011754 -49.179174 -1.022698 28.264441 -78.214066 16.874246 38.393073 160.382679 9.371581 -23.604830 -9.608373 -22.901070 13.618839 -42.004369 4.819812 -28.552458 -85.680924 -19.197291 -31.827207 150.692194 29.052337 12.159176 35.692282 -17.392433 -0.316245 -32.031802 2.946068 -4.567678 60.745529 0.373283 3.618913 -5.068034 -0.089024 -2.067253 3.392475 -7.346811 -5.243282 3.446571 -2.346985 3.954277 20.556397 -12.795305 3.980809 0.373677 -58.692634 -12.575281 -4.483049 113.292351 -70.671359 -78.461564 24.731707 -12.442285 4.915013 -17.744153 -7.533401 -12.820423 6.750770 0.959019 2.762327 38.112952 8.093822 -7.316038 -117.553336 75.686291 -100.973497 -18.764574 12.885738 -0.272958 25.397229 10.668202 3.092851 
-0.002997 0.786801 0.074132 176.301085 13.717687 -48.814128 -0.943880 28.217953 -78.497984 17.162191 38.270724 160.690303 9.650155 -23.823252 -9.987290 -22.938382 13.916769 -42.032754 4.627852 -28.514729 -85.539423 -19.581199 -31.698141 151.042452 28.953095 12.344393 35.964259 -16.869137 -0.490430 -32.047014 3.077888 -4.658003 60.867938 0.518828 3.703044 -5.023000 0.013627 -2.022742 3.183361 -7.174342 -4.938520 3.152362 -2.539071 4.309258 21.017819 -13.857703 3.404500 0.641287 -60.380574 -13.167612 -3.291539 112.613573 -71.182413 -77.608287 24.284027 -12.369017 4.704906 -17.583450 -7.500904 -12.641373 7.776681 1.641825 3.124650 39.448706 8.947213 -6.081567 -118.862618 76.440308 -102.068540 -18.396394 12.900624 -0.686640 25.121019 10.642398 3.224655 
-0.003750 0.786386 0.075287 176.473972 13.480379 -48.445029 -0.911088 28.421243 -78.432644 17.488363 38.164111 160.828087 10.024852 -23.889693 -9.539930 -22.923658 14.392507 -42.406845 4.550867 -28.931289 -85.086258 -19.940056 -31.773254 151.391871 28.630446 12.425276 36.361879 -16.252444 -0.610776 -32.108328 3.069778 -4.693890 60.795386 0.592127 3.621831 -5.052804 0.016878 -2.131216 3.123014 -6.887515 -4.743988 3.009067 -2.652884 4.463910 21.489001 -14.550888 3.217426 0.880005 -61.534421 -13.719892 -2.487654 112.294797 -71.932040 -76.905747 23.984729 -12.141807 4.865808 -17.842979 -7.580496 -12.839328 8.563125 1.827784 3.278340 41.335011 9.593855 -4.921295 -119.146312 76.688987 -102.226188 -18.131858 12.611848 -1.086746 25.304223 10.752450 3.048973 
-0.004602 0.786315 0.076036 176.582020 13.315956 -48.082470 -0.908992 28.543100 -78.528200 17.725163 38.159525 161.080735 10.085230 -24.021353 -9.592203 -22.865774 14.502256 -42.563181 4.473265 -29.042618 -85.086986 -20.190904 -31.733137 151.694681 28.651379 12.539843 36.560376 -16.179799 -0.644996 -32.150132 3.006677 -4.756511 60.840797 0.654816 3.534388 -5.160525 0.033797 -2.254400 3.094322 -6.774071 -4.462489 2.643089 -2.739024 4.585904 21.935203 -15.286087 2.865386 1.242757 -62.821030 -14.193488 -1.367915 110.982265 -72.639087 -75.926104 25.041127 -12.147857 3.752274 -17.853679 -7.565666 -12.567845 9.503610 2.106800 3.501392 42.836311 10.168151 -3.833959 -115.592018 77.438245 -99.281938 -19.572270 13.102527 -2.227921 25.475467 10.763814 3.012992 
